<svg xmlns="http://www.w3.org/2000/svg" viewBox="0 0 420 300" role="img" aria-labelledby="title desc">
  <title id="title">Portrait photography</title>
  <desc id="desc">Decorative Red Bonita gallery placeholder for future photographed images.</desc>
  <defs>
    <linearGradient id="bg" x1="0" y1="0" x2="1" y2="1"><stop offset="0" stop-color="#fff0df"/><stop offset=".52" stop-color="#c53950"/><stop offset="1" stop-color="#4a0819"/></linearGradient>
    <filter id="soft" x="-20%" y="-20%" width="140%" height="140%"><feGaussianBlur stdDeviation="10"/></filter>
  </defs>
  <rect width="420" height="300" rx="28" fill="url(#bg)"/>
  <circle cx="322" cy="73" r="54" fill="#ffe4bd" opacity=".25" filter="url(#soft)"/>
  <path d="M121 244c16-58 51-90 96-90s80 32 96 90" fill="none" stroke="#ffe1aa" stroke-width="10" stroke-linecap="round" opacity=".55"/>
  <circle cx="182" cy="117" r="43" fill="#fff7ed" opacity=".82"/><path d="M304 213c35-10 61-33 75-67-34 1-62 17-83 48" fill="#f7c9bd" opacity=".72"/><path d="M65 87c31 0 57 15 77 44-34 1-60-13-77-44Z" fill="#f6c0b5" opacity=".68"/>
  <rect x="18" y="18" width="384" height="264" rx="24" fill="none" stroke="#fff5e6" stroke-opacity=".28"/>
</svg>