<svg xmlns="http://www.w3.org/2000/svg" viewBox="0 0 512 512" role="img" aria-label="Social Organizer icon">
  <defs>
    <linearGradient id="bg" x1="64" y1="32" x2="448" y2="480" gradientUnits="userSpaceOnUse">
      <stop offset="0" stop-color="#34d399"/>
      <stop offset="0.48" stop-color="#14b8a6"/>
      <stop offset="1" stop-color="#38bdf8"/>
    </linearGradient>
    <linearGradient id="card" x1="146" y1="96" x2="366" y2="410" gradientUnits="userSpaceOnUse">
      <stop offset="0" stop-color="#f8fafc"/>
      <stop offset="1" stop-color="#cbd5e1"/>
    </linearGradient>
    <filter id="softShadow" x="-20%" y="-20%" width="140%" height="140%">
      <feDropShadow dx="0" dy="18" stdDeviation="22" flood-color="#020617" flood-opacity="0.34"/>
    </filter>
  </defs>
  <rect width="512" height="512" rx="92" fill="#071018"/>
  <rect x="46" y="46" width="420" height="420" rx="76" fill="url(#bg)"/>
  <path d="M91 144h330M91 255h330M91 366h330M146 91v330M256 91v330M366 91v330" fill="none" stroke="#071018" stroke-width="12" stroke-opacity="0.20"/>
  <g filter="url(#softShadow)">
    <path d="M256 86c-70 0-127 54-127 121 0 91 112 202 121 211a9 9 0 0 0 12 0c9-9 121-120 121-211 0-67-57-121-127-121Z" fill="#071018" opacity="0.92"/>
    <path d="M256 112c-55 0-100 42-100 94 0 70 78 153 100 176 22-23 100-106 100-176 0-52-45-94-100-94Z" fill="url(#card)"/>
    <circle cx="256" cy="204" r="45" fill="#071018"/>
    <circle cx="256" cy="204" r="27" fill="#34d399"/>
  </g>
  <path d="M176 356c23 18 49 28 80 28s57-10 80-28" fill="none" stroke="#071018" stroke-width="16" stroke-linecap="round" opacity="0.34"/>
</svg>
